<svg width="65" height="65" viewBox="0 0 65 65" fill="none" xmlns="http://www.w3.org/2000/svg">
<path d="M12.8646 5.07812C11.3382 5.07813 9.87435 5.68448 8.79504 6.76379C7.71573 7.8431 7.10938 9.30696 7.10938 10.8333C7.10938 12.3597 7.71573 13.8236 8.79504 14.9029C9.87435 15.9822 11.3382 16.5885 12.8646 16.5885C14.391 16.5885 15.8548 15.9822 16.9341 14.9029C18.0134 13.8236 18.6198 12.3597 18.6198 10.8333C18.6198 9.30696 18.0134 7.8431 16.9341 6.76379C15.8548 5.68448 14.391 5.07813 12.8646 5.07812ZM7.44792 21.3281C7.35813 21.3281 7.27202 21.3638 7.20853 21.4273C7.14504 21.4908 7.10938 21.5769 7.10938 21.6667V56.875C7.10938 57.0619 7.26104 57.2135 7.44792 57.2135H18.2812C18.371 57.2135 18.4571 57.1779 18.5206 57.1144C18.5841 57.0509 18.6198 56.9648 18.6198 56.875V21.6667C18.6198 21.5769 18.5841 21.4908 18.5206 21.4273C18.4571 21.3638 18.371 21.3281 18.2812 21.3281H7.44792ZM25.0521 21.3281C24.9623 21.3281 24.8762 21.3638 24.8127 21.4273C24.7492 21.4908 24.7135 21.5769 24.7135 21.6667V56.875C24.7135 57.0619 24.8652 57.2135 25.0521 57.2135H35.8854C35.9752 57.2135 36.0613 57.1779 36.1248 57.1144C36.1883 57.0509 36.224 56.9648 36.224 56.875V37.9167C36.224 36.5699 36.759 35.2782 37.7113 34.3259C38.6636 33.3736 39.9553 32.8385 41.3021 32.8385C42.6489 32.8385 43.9405 33.3736 44.8929 34.3259C45.8452 35.2782 46.3802 36.5699 46.3802 37.9167V56.875C46.3802 57.0619 46.5319 57.2135 46.7188 57.2135H57.5521C57.6419 57.2135 57.728 57.1779 57.7915 57.1144C57.855 57.0509 57.8906 56.9648 57.8906 56.875V33.5292C57.8906 26.956 52.176 21.8156 45.6354 22.4088C43.6119 22.5944 41.6299 23.0951 39.761 23.8929L36.224 25.4096V21.6667C36.224 21.5769 36.1883 21.4908 36.1248 21.4273C36.0613 21.3638 35.9752 21.3281 35.8854 21.3281H25.0521Z" fill="#0D99FF"/>
</svg>
