<svg width="85" height="85" viewBox="0 0 85 85" fill="none" xmlns="http://www.w3.org/2000/svg">
<g clip-path="url(#clip0_12_548)">
<mask id="mask0_12_548" style="mask-type:luminance" maskUnits="userSpaceOnUse" x="0" y="0" width="85" height="85">
<path d="M0 0H85V85H0V0Z" fill="white"/>
</mask>
<g mask="url(#mask0_12_548)">
<path d="M79.4749 42.2875C79.4749 62.7141 50.4687 79.6875 42.4999 79.6875C34.5312 79.6875 5.5249 62.7141 5.5249 42.2875C5.5249 21.8609 22.0733 5.3125 42.4999 5.3125C62.9265 5.3125 79.4749 21.8609 79.4749 42.2875Z" fill="url(#paint0_radial_12_548)"/>
<path d="M79.4749 42.2875C79.4749 62.7141 50.4687 79.6875 42.4999 79.6875C34.5312 79.6875 5.5249 62.7141 5.5249 42.2875C5.5249 21.8609 22.0733 5.3125 42.4999 5.3125C62.9265 5.3125 79.4749 21.8609 79.4749 42.2875Z" fill="url(#paint1_radial_12_548)"/>
<path d="M79.4749 42.2875C79.4749 62.7141 50.4687 79.6875 42.4999 79.6875C34.5312 79.6875 5.5249 62.7141 5.5249 42.2875C5.5249 21.8609 22.0733 5.3125 42.4999 5.3125C62.9265 5.3125 79.4749 21.8609 79.4749 42.2875Z" fill="url(#paint2_radial_12_548)"/>
<g filter="url(#filter0_f_12_548)">
<path d="M69.8724 37.2787C73.9027 33.4252 72.4698 25.3855 66.6718 19.3215C60.8739 13.2574 52.9065 11.4654 48.8762 15.3189C44.8458 19.1724 46.2788 27.2121 52.0767 33.2761C57.8747 39.3402 65.8421 41.1322 69.8724 37.2787Z" fill="#9EFCA0"/>
</g>
<g filter="url(#filter1_f_12_548)">
<path d="M11.053 32.514C9.83101 31.6709 11.0373 27.8032 13.7474 23.8752C16.4574 19.9472 19.645 17.4463 20.867 18.2894C22.089 19.1325 20.8827 23.0003 18.1726 26.9283C15.4626 30.8563 12.275 33.3571 11.053 32.514Z" fill="#BAEEBC" fill-opacity="0.75"/>
</g>
<g filter="url(#filter2_f_12_548)">
<path d="M33.814 56.2966C27.6648 62.6237 19.6668 60.0923 13.4884 53.7359C7.30994 47.3795 5.31775 39.6658 11.4696 33.3094C12.9133 31.8058 14.646 30.6095 16.5635 29.7923C18.4811 28.9751 20.5441 28.5538 22.6285 28.5538C24.713 28.5538 26.7759 28.9751 28.6935 29.7923C30.6111 30.6095 32.3438 31.8058 33.7874 33.3094C39.9393 39.6366 39.9951 49.9694 33.814 56.2966Z" fill="#608D6A" fill-opacity="0.75"/>
</g>
<g filter="url(#filter3_f_12_548)">
<path d="M48.2638 56.8172C53.1805 62.2466 59.5715 60.0737 64.5121 54.6152C69.4501 49.1592 71.0385 42.5398 66.1244 37.0839C61.2104 31.6253 53.2044 31.6519 48.2877 37.0839C43.371 42.5159 43.3285 51.3851 48.2665 56.8145" fill="#608D6A" fill-opacity="0.75"/>
</g>
<path d="M35.4874 55.1969C29.6968 60.9875 23.6406 57.6406 17.8234 51.8234C12.0062 46.0062 8.65931 39.9766 14.4499 34.1594C20.2406 28.3422 29.6702 28.3687 35.4609 34.1594C41.2515 39.95 41.3046 49.4062 35.4874 55.1969Z" fill="url(#paint3_radial_12_548)"/>
<path d="M35.4874 55.1969C29.6968 60.9875 23.6406 57.6406 17.8234 51.8234C12.0062 46.0062 8.65931 39.9766 14.4499 34.1594C20.2406 28.3422 29.6702 28.3687 35.4609 34.1594C41.2515 39.95 41.3046 49.4062 35.4874 55.1969Z" fill="url(#paint4_radial_12_548)"/>
<path d="M35.4874 55.1969C29.6968 60.9875 23.6406 57.6406 17.8234 51.8234C12.0062 46.0062 8.65931 39.9766 14.4499 34.1594C20.2406 28.3422 29.6702 28.3687 35.4609 34.1594C41.2515 39.95 41.3046 49.4062 35.4874 55.1969Z" fill="url(#paint5_radial_12_548)"/>
<path d="M49.5123 55.1969C55.303 60.9875 61.3592 57.6406 67.1764 51.8234C72.9936 46.0062 76.3405 39.9766 70.5498 34.1594C64.7592 28.3422 55.3295 28.3687 49.5389 34.1594C43.7483 39.95 43.7217 49.4062 49.5123 55.1969Z" fill="url(#paint6_radial_12_548)"/>
<path d="M49.5123 55.1969C55.303 60.9875 61.3592 57.6406 67.1764 51.8234C72.9936 46.0062 76.3405 39.9766 70.5498 34.1594C64.7592 28.3422 55.3295 28.3687 49.5389 34.1594C43.7483 39.95 43.7217 49.4062 49.5123 55.1969Z" fill="url(#paint7_radial_12_548)"/>
<path d="M49.5123 55.1969C55.303 60.9875 61.3592 57.6406 67.1764 51.8234C72.9936 46.0062 76.3405 39.9766 70.5498 34.1594C64.7592 28.3422 55.3295 28.3687 49.5389 34.1594C43.7483 39.95 43.7217 49.4062 49.5123 55.1969Z" fill="url(#paint8_radial_12_548)"/>
<path d="M49.5123 55.1969C55.303 60.9875 61.3592 57.6406 67.1764 51.8234C72.9936 46.0062 76.3405 39.9766 70.5498 34.1594C64.7592 28.3422 55.3295 28.3687 49.5389 34.1594C43.7483 39.95 43.7217 49.4062 49.5123 55.1969Z" fill="url(#paint9_radial_12_548)"/>
<g filter="url(#filter4_f_12_548)">
<path d="M67.8008 35.2378C72.1384 37.3549 71.7028 41.7961 69.4609 44.2027" stroke="#686061" stroke-width="0.375" stroke-linecap="round"/>
</g>
<path d="M68.1859 34.8234C70.2578 36.8953 70.6297 39.8703 69.0094 41.4906C67.3891 43.1109 64.4141 42.7391 62.3422 40.6672C60.2703 38.5953 59.8984 35.6203 61.5187 34C63.1391 32.3797 66.1406 32.7781 68.1859 34.8234Z" fill="url(#paint10_linear_12_548)"/>
<g filter="url(#filter5_f_12_548)">
<path d="M33.8301 38.1013C35.0041 39.7614 36.2366 44.6516 34.3082 50.4608" stroke="#686061" stroke-width="0.375" stroke-linecap="round"/>
</g>
<path d="M32.911 34.8234C34.9829 36.8953 35.3548 39.8703 33.7345 41.4906C32.1142 43.1109 29.1392 42.7391 27.0673 40.6672C24.9954 38.5953 24.6235 35.6203 26.2438 34C27.8642 32.3797 30.8392 32.7781 32.911 34.8234Z" fill="url(#paint11_linear_12_548)"/>
<path d="M37.166 66.5311C37.166 66.5311 39.2645 68.773 42.5423 68.773C45.8201 68.773 47.8335 66.5311 47.8335 66.5311" stroke="url(#paint12_radial_12_548)" stroke-width="0.9" stroke-linecap="round" stroke-linejoin="round"/>
</g>
</g>
<defs>
<filter id="filter0_f_12_548" x="44.5879" y="11.2879" width="29.5728" height="30.0219" filterUnits="userSpaceOnUse" color-interpolation-filters="sRGB">
<feFlood flood-opacity="0" result="BackgroundImageFix"/>
<feBlend mode="normal" in="SourceGraphic" in2="BackgroundImageFix" result="shape"/>
<feGaussianBlur stdDeviation="1" result="effect1_foregroundBlur_12_548"/>
</filter>
<filter id="filter1_f_12_548" x="9.07568" y="16.6259" width="13.7686" height="17.5515" filterUnits="userSpaceOnUse" color-interpolation-filters="sRGB">
<feFlood flood-opacity="0" result="BackgroundImageFix"/>
<feBlend mode="normal" in="SourceGraphic" in2="BackgroundImageFix" result="shape"/>
<feGaussianBlur stdDeviation="0.75" result="effect1_foregroundBlur_12_548"/>
</filter>
<filter id="filter2_f_12_548" x="5.73486" y="26.5538" width="34.6909" height="35.4056" filterUnits="userSpaceOnUse" color-interpolation-filters="sRGB">
<feFlood flood-opacity="0" result="BackgroundImageFix"/>
<feBlend mode="normal" in="SourceGraphic" in2="BackgroundImageFix" result="shape"/>
<feGaussianBlur stdDeviation="1" result="effect1_foregroundBlur_12_548"/>
</filter>
<filter id="filter3_f_12_548" x="42.5815" y="30.9999" width="28.5269" height="30.9599" filterUnits="userSpaceOnUse" color-interpolation-filters="sRGB">
<feFlood flood-opacity="0" result="BackgroundImageFix"/>
<feBlend mode="normal" in="SourceGraphic" in2="BackgroundImageFix" result="shape"/>
<feGaussianBlur stdDeviation="1" result="effect1_foregroundBlur_12_548"/>
</filter>
<filter id="filter4_f_12_548" x="66.8633" y="34.3003" width="5.19385" height="10.8399" filterUnits="userSpaceOnUse" color-interpolation-filters="sRGB">
<feFlood flood-opacity="0" result="BackgroundImageFix"/>
<feBlend mode="normal" in="SourceGraphic" in2="BackgroundImageFix" result="shape"/>
<feGaussianBlur stdDeviation="0.375" result="effect1_foregroundBlur_12_548"/>
</filter>
<filter id="filter5_f_12_548" x="32.8926" y="37.1637" width="3.35889" height="14.2346" filterUnits="userSpaceOnUse" color-interpolation-filters="sRGB">
<feFlood flood-opacity="0" result="BackgroundImageFix"/>
<feBlend mode="normal" in="SourceGraphic" in2="BackgroundImageFix" result="shape"/>
<feGaussianBlur stdDeviation="0.375" result="effect1_foregroundBlur_12_548"/>
</filter>
<radialGradient id="paint0_radial_12_548" cx="0" cy="0" r="1" gradientUnits="userSpaceOnUse" gradientTransform="translate(63.6286 77.3636) rotate(-124.672) scale(77.9187 227.98)">
<stop offset="0.393" stop-color="#92E65B"/>
<stop offset="1" stop-color="#6BD179"/>
</radialGradient>
<radialGradient id="paint1_radial_12_548" cx="0" cy="0" r="1" gradientUnits="userSpaceOnUse" gradientTransform="translate(46.8648 47.3154) rotate(-153.522) scale(49.1499 59.1499)">
<stop offset="0.553" stop-color="#67B077" stop-opacity="0"/>
<stop offset="1" stop-color="#67B077"/>
</radialGradient>
<radialGradient id="paint2_radial_12_548" cx="0" cy="0" r="1" gradientUnits="userSpaceOnUse" gradientTransform="translate(46.8646 47.314) rotate(-137.076) scale(55.0925 54.4207)">
<stop offset="0.76" stop-color="#608D6A" stop-opacity="0"/>
<stop offset="1" stop-color="#608D6A"/>
</radialGradient>
<radialGradient id="paint3_radial_12_548" cx="0" cy="0" r="1" gradientUnits="userSpaceOnUse" gradientTransform="translate(32.2601 66.7197) rotate(-106.489) scale(31.0893 38.5804)">
<stop stop-color="#482641"/>
<stop offset="0.234" stop-color="#4A2943"/>
<stop offset="1" stop-color="#654F5F"/>
</radialGradient>
<radialGradient id="paint4_radial_12_548" cx="0" cy="0" r="1" gradientUnits="userSpaceOnUse" gradientTransform="translate(29.6779 47.6468) rotate(-142.786) scale(29.4977 18.9474)">
<stop offset="0.531" stop-color="#1A1819" stop-opacity="0"/>
<stop offset="0.979" stop-color="#1A1819"/>
</radialGradient>
<radialGradient id="paint5_radial_12_548" cx="0" cy="0" r="1" gradientUnits="userSpaceOnUse" gradientTransform="translate(44.8732 54.8677) rotate(-153.486) scale(41.28 31.3961)">
<stop offset="0.858" stop-color="#A28D8F" stop-opacity="0"/>
<stop offset="1" stop-color="#A28D8F"/>
</radialGradient>
<radialGradient id="paint6_radial_12_548" cx="0" cy="0" r="1" gradientUnits="userSpaceOnUse" gradientTransform="translate(65.997 66.7197) rotate(-106.483) scale(31.0885 38.568)">
<stop stop-color="#482641"/>
<stop offset="0.234" stop-color="#4A2943"/>
<stop offset="1" stop-color="#654F5F"/>
</radialGradient>
<radialGradient id="paint7_radial_12_548" cx="0" cy="0" r="1" gradientUnits="userSpaceOnUse" gradientTransform="translate(62.7989 45.6556) rotate(-139.304) scale(24.305 20.8941)">
<stop offset="0.495" stop-color="#1A1819" stop-opacity="0"/>
<stop offset="0.979" stop-color="#1A1819"/>
</radialGradient>
<radialGradient id="paint8_radial_12_548" cx="0" cy="0" r="1" gradientUnits="userSpaceOnUse" gradientTransform="translate(46.1994 35.196) rotate(22.793) scale(33.8547 54.1208)">
<stop offset="0.713" stop-color="#1A1819" stop-opacity="0"/>
<stop offset="0.979" stop-color="#1A1819"/>
</radialGradient>
<radialGradient id="paint9_radial_12_548" cx="0" cy="0" r="1" gradientUnits="userSpaceOnUse" gradientTransform="translate(78.6035 54.8674) rotate(-153.478) scale(41.2683 31.394)">
<stop offset="0.858" stop-color="#A28D8F" stop-opacity="0"/>
<stop offset="1" stop-color="#A28D8F"/>
</radialGradient>
<linearGradient id="paint10_linear_12_548" x1="65.2641" y1="32.0184" x2="65.0303" y2="42.5" gradientUnits="userSpaceOnUse">
<stop offset="0.198" stop-color="white"/>
<stop offset="1" stop-color="white" stop-opacity="0"/>
</linearGradient>
<linearGradient id="paint11_linear_12_548" x1="29.9892" y1="32.0184" x2="29.7554" y2="42.5" gradientUnits="userSpaceOnUse">
<stop offset="0.198" stop-color="white"/>
<stop offset="1" stop-color="white" stop-opacity="0"/>
</linearGradient>
<radialGradient id="paint12_radial_12_548" cx="0" cy="0" r="1" gradientUnits="userSpaceOnUse" gradientTransform="translate(42.962 59.2689) rotate(90) scale(30.132 26.1283)">
<stop offset="0.07" stop-color="#2E1529"/>
<stop offset="0.297" stop-color="#5F4357"/>
<stop offset="0.438" stop-color="#4B2744"/>
</radialGradient>
<clipPath id="clip0_12_548">
<rect width="85" height="85" fill="white"/>
</clipPath>
</defs>
</svg>
