<svg width="65" height="54" viewBox="0 0 65 54" fill="none" xmlns="http://www.w3.org/2000/svg">
<g clip-path="url(#clip0_3_181)">
<path d="M65 6.46194C62.566 7.54037 59.9843 8.24815 57.3407 8.56175C60.0943 6.91136 62.2086 4.2979 63.2041 1.18399C60.5864 2.73728 57.7225 3.83172 54.7361 4.42003C52.3034 1.82841 48.8379 0.20874 45.0021 0.20874C37.6373 0.20874 31.6662 6.1796 31.6662 13.5439C31.6662 14.5892 31.7842 15.6069 32.0115 16.5832C20.9285 16.0268 11.1023 10.7179 4.52486 2.6498C3.37721 4.61935 2.71959 6.91034 2.71959 9.35394C2.71959 13.9806 5.07406 18.0622 8.65211 20.4537C6.53438 20.3875 4.46324 19.8155 2.61168 18.7855C2.611 18.8414 2.61075 18.8973 2.61092 18.9534C2.61092 25.4145 7.20764 30.8044 13.308 32.0295C11.3442 32.5635 9.28442 32.6417 7.28584 32.2581C8.9827 37.5561 13.9077 41.4114 19.743 41.5193C15.179 45.0958 9.42881 47.2279 3.18119 47.2279C2.10463 47.2279 1.0433 47.1646 0 47.0415C5.90154 50.8252 12.9111 53.0329 20.442 53.0329C44.9711 53.0329 58.3842 32.7125 58.3842 15.0904C58.3842 14.512 58.3714 13.9369 58.3456 13.3651C60.9562 11.4776 63.2095 9.14001 65 6.46194Z" fill="#55ACEE"/>
</g>
<defs>
<clipPath id="clip0_3_181">
<rect width="65" height="53.0664" fill="white"/>
</clipPath>
</defs>
</svg>
