<svg width="65" height="66" viewBox="0 0 65 66" fill="none" xmlns="http://www.w3.org/2000/svg">
<g clip-path="url(#clip0_3_185)">
<path d="M1.38713 32.3619C1.38561 37.8658 2.82374 43.24 5.55831 47.9768L1.12561 64.1613L17.6884 59.8185C22.2695 62.3124 27.4022 63.6191 32.6181 63.6195H32.6318C49.8505 63.6195 63.8669 49.6082 63.8742 32.3865C63.8775 24.0413 60.6306 16.1941 54.7313 10.2903C48.8331 4.38697 40.9886 1.13418 32.6306 1.13037C15.4099 1.13037 1.3945 15.1409 1.38739 32.3619" fill="url(#paint0_linear_3_185)"/>
<path d="M0.27168 32.3517C0.269902 38.0537 1.75957 43.6201 4.59164 48.5266L0 65.2912L17.1567 60.7928C21.8839 63.3702 27.2063 64.7291 32.6221 64.7311H32.6361C50.4725 64.7311 64.9924 50.2158 65 32.3776C65.003 23.7326 61.6393 15.6033 55.5293 9.48797C49.4185 3.3734 41.2935 0.00355469 32.6361 0C14.7966 0 0.278789 14.5133 0.27168 32.3517ZM10.4891 47.6816L9.84852 46.6647C7.15559 42.3828 5.73422 37.4347 5.73625 32.3538C5.74184 17.5269 17.8085 5.46406 32.6463 5.46406C39.8318 5.46711 46.5847 8.2682 51.6638 13.3504C56.7427 18.4331 59.5375 25.1895 59.5357 32.3756C59.5291 47.2024 47.4622 59.2668 32.6361 59.2668H32.6254C27.7979 59.2643 23.0633 57.9678 18.9343 55.5179L17.9517 54.9352L7.77055 57.6045L10.4891 47.6816Z" fill="url(#paint1_linear_3_185)"/>
<path d="M24.5472 18.8266C23.9414 17.4802 23.3038 17.453 22.7277 17.4294C22.256 17.4091 21.7167 17.4106 21.1779 17.4106C20.6386 17.4106 19.7624 17.6135 19.0217 18.4222C18.2803 19.2316 16.1912 21.1877 16.1912 25.1662C16.1912 29.1446 19.089 32.9898 19.493 33.5298C19.8974 34.0689 25.0873 42.4945 33.3067 45.7359C40.1378 48.4296 41.528 47.8938 43.0105 47.7588C44.4933 47.6242 47.7951 45.8032 48.4687 43.9149C49.1429 42.0268 49.1429 40.4084 48.9408 40.0702C48.7386 39.7333 48.1993 39.5309 47.3907 39.1267C46.582 38.7225 42.606 36.7659 41.8649 36.496C41.1235 36.2263 40.5844 36.0918 40.0451 36.9015C39.5058 37.7099 37.9573 39.5309 37.4853 40.0702C37.0138 40.6108 36.5417 40.6781 35.7333 40.2736C34.9241 39.8679 32.3198 39.015 29.23 36.2604C26.826 34.1169 25.2031 31.4699 24.7313 30.6602C24.2595 29.8518 24.6808 29.4135 25.0863 29.0106C25.4496 28.6482 25.8952 28.0663 26.2999 27.5943C26.7031 27.122 26.8377 26.7851 27.1074 26.2458C27.3773 25.706 27.2422 25.2337 27.0403 24.8292C26.8377 24.4248 25.2663 20.4255 24.5472 18.8266Z" fill="white"/>
</g>
<defs>
<linearGradient id="paint0_linear_3_185" x1="3138.56" y1="6304.23" x2="3138.56" y2="1.13037" gradientUnits="userSpaceOnUse">
<stop stop-color="#1FAF38"/>
<stop offset="1" stop-color="#60D669"/>
</linearGradient>
<linearGradient id="paint1_linear_3_185" x1="3250" y1="6529.12" x2="3250" y2="0" gradientUnits="userSpaceOnUse">
<stop stop-color="#F9F9F9"/>
<stop offset="1" stop-color="white"/>
</linearGradient>
<clipPath id="clip0_3_185">
<rect width="65" height="65.5078" fill="white"/>
</clipPath>
</defs>
</svg>
