<svg width="70" height="65" viewBox="0 0 70 65" fill="none" xmlns="http://www.w3.org/2000/svg">
<path d="M11.667 8.125C9.34635 8.125 7.12075 8.98102 5.47981 10.5048C3.83886 12.0285 2.91699 14.0951 2.91699 16.25V51.4583C2.91699 53.6132 3.83886 55.6798 5.47981 57.2036C7.12075 58.7273 9.34635 59.5833 11.667 59.5833H49.5837C51.9043 59.5833 54.1299 58.7273 55.7708 57.2036C57.4118 55.6798 58.3337 53.6132 58.3337 51.4583V46.6646C60.1712 45.1208 61.2503 42.9271 61.2503 40.625V27.0833C61.2503 24.7812 60.1712 22.5875 58.3337 21.0437V16.25C58.3337 14.0951 57.4118 12.0285 55.7708 10.5048C54.1299 8.98102 51.9043 8.125 49.5837 8.125H11.667ZM11.667 10.8333H49.5837C51.1308 10.8333 52.6145 11.404 53.7084 12.4198C54.8024 13.4357 55.417 14.8134 55.417 16.25V19.4187C54.4837 19.1208 53.492 18.9583 52.5003 18.9583H35.0003C32.6797 18.9583 30.4541 19.8144 28.8131 21.3381C27.1722 22.8618 26.2503 24.9284 26.2503 27.0833V40.625C26.2503 42.7799 27.1722 44.8465 28.8131 46.3702C30.4541 47.894 32.6797 48.75 35.0003 48.75H52.5003C53.492 48.75 54.4837 48.5875 55.417 48.2896V51.4583C55.417 52.8949 54.8024 54.2727 53.7084 55.2885C52.6145 56.3043 51.1308 56.875 49.5837 56.875H11.667C10.1199 56.875 8.63616 56.3043 7.5422 55.2885C6.44824 54.2727 5.83366 52.8949 5.83366 51.4583V16.25C5.83366 14.8134 6.44824 13.4357 7.5422 12.4198C8.63616 11.404 10.1199 10.8333 11.667 10.8333ZM35.0003 21.6667H52.5003C54.0474 21.6667 55.5312 22.2374 56.6251 23.2532C57.7191 24.269 58.3337 25.6467 58.3337 27.0833V40.625C58.3337 42.0616 57.7191 43.4393 56.6251 44.4552C55.5312 45.471 54.0474 46.0417 52.5003 46.0417H35.0003C33.4532 46.0417 31.9695 45.471 30.8755 44.4552C29.7816 43.4393 29.167 42.0616 29.167 40.625V27.0833C29.167 25.6467 29.7816 24.269 30.8755 23.2532C31.9695 22.2374 33.4532 21.6667 35.0003 21.6667ZM42.292 27.0833C40.3581 27.0833 38.5035 27.7967 37.136 29.0665C35.7686 30.3362 35.0003 32.0584 35.0003 33.8542C35.0003 35.6499 35.7686 37.3721 37.136 38.6419C38.5035 39.9116 40.3581 40.625 42.292 40.625C44.2259 40.625 46.0805 39.9116 47.448 38.6419C48.8154 37.3721 49.5837 35.6499 49.5837 33.8542C49.5837 32.0584 48.8154 30.3362 47.448 29.0665C46.0805 27.7967 44.2259 27.0833 42.292 27.0833ZM42.292 29.7917C43.4523 29.7917 44.5651 30.2197 45.3856 30.9815C46.2061 31.7434 46.667 32.7767 46.667 33.8542C46.667 34.9316 46.2061 35.9649 45.3856 36.7268C44.5651 37.4887 43.4523 37.9167 42.292 37.9167C41.1317 37.9167 40.0189 37.4887 39.1984 36.7268C38.3779 35.9649 37.917 34.9316 37.917 33.8542C37.917 32.7767 38.3779 31.7434 39.1984 30.9815C40.0189 30.2197 41.1317 29.7917 42.292 29.7917Z" fill="#B9954F"/>
</svg>
