<svg width="65" height="65" viewBox="0 0 65 65" fill="none" xmlns="http://www.w3.org/2000/svg">
<g clip-path="url(#clip0_3_194)">
<path d="M49.7656 0H15.2344C6.82066 0 0 6.82066 0 15.2344V49.7656C0 58.1793 6.82066 65 15.2344 65H49.7656C58.1793 65 65 58.1793 65 49.7656V15.2344C65 6.82066 58.1793 0 49.7656 0Z" fill="#5865F2"/>
<mask id="mask0_3_194" style="mask-type:luminance" maskUnits="userSpaceOnUse" x="7" y="12" width="51" height="41">
<path d="M7.10938 12.9492H57.8906V52.2869H7.10938V12.9492Z" fill="white"/>
</mask>
<g mask="url(#mask0_3_194)">
<path d="M50.0978 16.4523C46.8055 14.9413 43.3311 13.8636 39.7616 13.2463C39.7291 13.2404 39.6956 13.2448 39.6659 13.2589C39.6361 13.273 39.6115 13.2961 39.5955 13.325C39.1491 14.1187 38.6545 15.1546 38.3085 15.9687C34.4051 15.3842 30.5222 15.3842 26.6991 15.9687C26.3528 15.1364 25.8404 14.1187 25.392 13.325C25.3755 13.2966 25.3507 13.2739 25.321 13.2598C25.2914 13.2458 25.2581 13.241 25.2257 13.2463C21.6558 13.8622 18.1812 14.9399 14.8894 16.4523C14.8614 16.4645 14.8377 16.4849 14.8214 16.5107C8.23808 26.3461 6.43484 35.9397 7.31944 45.4144C7.32484 45.4612 7.34858 45.5039 7.38546 45.5332C11.7288 48.7231 15.9363 50.6596 20.0655 51.9431C20.0977 51.9526 20.1319 51.9521 20.1638 51.9417C20.1956 51.9313 20.2235 51.9114 20.2438 51.8847C21.2206 50.5507 22.0912 49.1443 22.8379 47.6653C22.8482 47.645 22.8541 47.6228 22.8552 47.6001C22.8562 47.5774 22.8525 47.5548 22.8442 47.5336C22.8358 47.5125 22.8231 47.4934 22.8069 47.4775C22.7906 47.4616 22.7712 47.4494 22.7498 47.4416C21.3686 46.9175 20.0536 46.279 18.7886 45.5536C18.7656 45.54 18.7463 45.521 18.7323 45.4981C18.7184 45.4753 18.7102 45.4494 18.7087 45.4227C18.7071 45.396 18.7121 45.3694 18.7232 45.3451C18.7344 45.3208 18.7514 45.2996 18.7726 45.2834C19.0395 45.0839 19.3018 44.8784 19.5592 44.6669C19.5818 44.6483 19.6091 44.6364 19.6381 44.6324C19.6671 44.6285 19.6966 44.6327 19.7233 44.6446C28.0341 48.4389 37.0313 48.4389 45.2439 44.6446C45.2707 44.632 45.3006 44.6272 45.33 44.6308C45.3594 44.6344 45.3872 44.6462 45.4102 44.6649C45.668 44.8775 45.9309 45.0837 46.1988 45.2834C46.2202 45.2994 46.2373 45.3205 46.2486 45.3447C46.26 45.3689 46.2652 45.3955 46.2638 45.4222C46.2624 45.4489 46.2545 45.4748 46.2407 45.4977C46.227 45.5206 46.2078 45.5398 46.1849 45.5536C44.9192 46.2926 43.5934 46.9235 42.2216 47.4396C42.2004 47.4478 42.1811 47.4604 42.165 47.4765C42.149 47.4926 42.1365 47.512 42.1283 47.5333C42.1202 47.5546 42.1167 47.5773 42.1179 47.6001C42.1192 47.6228 42.1252 47.645 42.1356 47.6653C42.8952 49.1326 43.7615 50.5422 44.7275 51.8827C44.7472 51.91 44.775 51.9305 44.8069 51.9413C44.8389 51.9522 44.8734 51.9528 44.9057 51.9431C49.055 50.6596 53.2625 48.7231 57.6061 45.5332C57.6247 45.5195 57.6401 45.502 57.6515 45.4819C57.6629 45.4617 57.6699 45.4395 57.6721 45.4165C58.7309 34.4627 55.8986 24.9475 50.1638 16.5128C50.1499 16.4853 50.1264 16.4638 50.0978 16.4523ZM24.079 39.6454C21.5768 39.6454 19.5151 37.3483 19.5151 34.5272C19.5151 31.706 21.5369 29.4089 24.079 29.4089C26.6409 29.4089 28.6826 31.7263 28.6425 34.5272C28.6425 37.3483 26.6209 39.6454 24.079 39.6454ZM40.9526 39.6454C38.4504 39.6454 36.3889 37.3483 36.3889 34.5272C36.3889 31.706 38.4105 29.4089 40.9526 29.4089C43.5145 29.4089 45.5562 31.7263 45.5163 34.5272C45.5163 37.3483 43.5145 39.6454 40.9526 39.6454Z" fill="white"/>
</g>
</g>
<defs>
<clipPath id="clip0_3_194">
<rect width="65" height="65" fill="white"/>
</clipPath>
</defs>
</svg>
